<?xml version="1.0" standalone="no"?>
<!DOCTYPE svg PUBLIC "-//W3C//DTD SVG 20010904//EN"
 "http://www.w3.org/TR/2001/REC-SVG-20010904/DTD/svg10.dtd">
<svg version="1.0" xmlns="http://www.w3.org/2000/svg"
 width="256.000000pt" height="256.000000pt" viewBox="0 0 256.000000 256.000000"
 preserveAspectRatio="xMidYMid meet">
<metadata>
Created by potrace 1.11, written by Peter Selinger 2001-2013
</metadata>
<g transform="translate(0.000000,256.000000) scale(0.100000,-0.100000)"
fill="#000000" stroke="none">
<path d="M993 1966 c-135 -44 -224 -164 -224 -304 0 -40 6 -85 15 -106 l16
-38 -110 -109 -109 -110 -29 15 c-44 23 -92 26 -142 9 -138 -46 -177 -212 -75
-315 53 -53 136 -70 207 -43 10 4 36 -17 76 -61 l61 -67 -16 -30 c-20 -40 -12
-117 17 -158 91 -127 294 -62 294 94 0 103 -74 168 -185 163 l-54 -3 -54 59
-55 59 18 49 c17 47 18 109 2 150 -4 10 28 50 99 120 l105 104 27 -26 c56 -52
111 -72 203 -72 71 -1 94 3 140 25 30 14 71 43 91 63 l36 38 122 -121 121
-120 -19 -37 c-19 -35 -23 -117 -8 -154 5 -10 -15 -38 -57 -83 -60 -64 -65
-67 -91 -57 -102 39 -226 -62 -211 -171 3 -23 14 -56 24 -73 21 -38 93 -76
142 -76 90 1 168 91 155 180 -4 25 -8 52 -9 61 0 9 23 42 53 73 l54 58 41 -16
c54 -21 111 -20 160 2 37 17 41 17 55 1 9 -9 35 -36 58 -60 l42 -44 -13 -45
c-47 -159 154 -280 268 -161 52 54 63 129 30 193 -33 63 -126 102 -189 78 -28
-11 -31 -9 -92 57 -55 59 -62 72 -57 98 12 67 10 87 -12 134 -15 34 -36 59
-65 78 -38 25 -52 28 -121 28 l-78 0 -130 130 c-101 101 -128 134 -124 150 36
146 -37 305 -170 370 -65 32 -171 42 -233 21z m-115 -1132 c36 -24 55 -78 42
-118 -32 -98 -152 -113 -204 -26 -59 101 63 209 162 144z m556 -3 c64 -57 53
-151 -22 -187 -120 -57 -215 99 -116 187 36 32 102 32 138 0z m746 9 c27 -15
52 -60 52 -95 0 -86 -97 -140 -170 -95 -54 33 -67 98 -32 156 31 49 95 64 150
34z"/>
</g>
</svg>
